<mxfile host="app.diagrams.net" modified="2023-12-30T12:56:06.600Z" agent="Mozilla/5.0 (Windows NT 10.0; Win64; x64) AppleWebKit/537.36 (KHTML, like Gecko) Chrome/118.0.0.0 YaBrowser/23.11.0.0 Safari/537.36" etag="mJSxrAEIlNjVJIhSiwRg" version="22.1.16" type="device">
  <diagram name="Страница — 1" id="xUQ-DsVU4bho5axxtzal">
    <mxGraphModel dx="2150" dy="-64" grid="1" gridSize="10" guides="1" tooltips="1" connect="1" arrows="1" fold="1" page="1" pageScale="1" pageWidth="827" pageHeight="1169" math="0" shadow="0">
      <root>
        <mxCell id="0" />
        <mxCell id="1" parent="0" />
        <mxCell id="4E6vH5az77i4Y6E_4xJS-1" value="" style="edgeStyle=orthogonalEdgeStyle;rounded=0;orthogonalLoop=1;jettySize=auto;html=1;" edge="1" parent="1" source="4E6vH5az77i4Y6E_4xJS-3" target="4E6vH5az77i4Y6E_4xJS-6">
          <mxGeometry relative="1" as="geometry">
            <Array as="points">
              <mxPoint x="220" y="1392.5" />
              <mxPoint x="220" y="1392.5" />
            </Array>
          </mxGeometry>
        </mxCell>
        <mxCell id="4E6vH5az77i4Y6E_4xJS-2" value="Запрос" style="edgeLabel;html=1;align=center;verticalAlign=middle;resizable=0;points=[];" vertex="1" connectable="0" parent="4E6vH5az77i4Y6E_4xJS-1">
          <mxGeometry x="-0.2739" y="1" relative="1" as="geometry">
            <mxPoint x="11" as="offset" />
          </mxGeometry>
        </mxCell>
        <mxCell id="4E6vH5az77i4Y6E_4xJS-3" value="пользователь" style="whiteSpace=wrap;html=1;aspect=fixed;" vertex="1" parent="1">
          <mxGeometry x="90" y="1372.5" width="90" height="90" as="geometry" />
        </mxCell>
        <mxCell id="4E6vH5az77i4Y6E_4xJS-4" style="edgeStyle=orthogonalEdgeStyle;rounded=0;orthogonalLoop=1;jettySize=auto;html=1;exitX=0;exitY=0.75;exitDx=0;exitDy=0;entryX=1;entryY=0.75;entryDx=0;entryDy=0;" edge="1" parent="1" source="4E6vH5az77i4Y6E_4xJS-6" target="4E6vH5az77i4Y6E_4xJS-3">
          <mxGeometry relative="1" as="geometry" />
        </mxCell>
        <mxCell id="4E6vH5az77i4Y6E_4xJS-5" value="Ответ" style="edgeLabel;html=1;align=center;verticalAlign=middle;resizable=0;points=[];" vertex="1" connectable="0" parent="4E6vH5az77i4Y6E_4xJS-4">
          <mxGeometry x="0.1435" relative="1" as="geometry">
            <mxPoint x="6" as="offset" />
          </mxGeometry>
        </mxCell>
        <mxCell id="4E6vH5az77i4Y6E_4xJS-6" value="Приложение" style="whiteSpace=wrap;html=1;aspect=fixed;" vertex="1" parent="1">
          <mxGeometry x="260" y="1372.5" width="90" height="90" as="geometry" />
        </mxCell>
        <mxCell id="4E6vH5az77i4Y6E_4xJS-7" style="edgeStyle=orthogonalEdgeStyle;rounded=0;orthogonalLoop=1;jettySize=auto;html=1;exitX=0;exitY=0;exitDx=0;exitDy=82.50000000000001;exitPerimeter=0;entryX=1;entryY=0.75;entryDx=0;entryDy=0;" edge="1" parent="1" source="4E6vH5az77i4Y6E_4xJS-9" target="4E6vH5az77i4Y6E_4xJS-6">
          <mxGeometry relative="1" as="geometry" />
        </mxCell>
        <mxCell id="4E6vH5az77i4Y6E_4xJS-8" value="Ответ" style="edgeLabel;html=1;align=center;verticalAlign=middle;resizable=0;points=[];" vertex="1" connectable="0" parent="4E6vH5az77i4Y6E_4xJS-7">
          <mxGeometry x="0.0869" relative="1" as="geometry">
            <mxPoint as="offset" />
          </mxGeometry>
        </mxCell>
        <mxCell id="4E6vH5az77i4Y6E_4xJS-9" value="БД" style="shape=cylinder3;whiteSpace=wrap;html=1;boundedLbl=1;backgroundOutline=1;size=15;" vertex="1" parent="1">
          <mxGeometry x="455" y="1362.5" width="100" height="120" as="geometry" />
        </mxCell>
        <mxCell id="4E6vH5az77i4Y6E_4xJS-10" style="edgeStyle=orthogonalEdgeStyle;rounded=0;orthogonalLoop=1;jettySize=auto;html=1;exitX=1;exitY=0.25;exitDx=0;exitDy=0;entryX=0;entryY=0;entryDx=0;entryDy=35;entryPerimeter=0;" edge="1" parent="1" source="4E6vH5az77i4Y6E_4xJS-6" target="4E6vH5az77i4Y6E_4xJS-9">
          <mxGeometry relative="1" as="geometry" />
        </mxCell>
        <mxCell id="4E6vH5az77i4Y6E_4xJS-11" value="Запрос" style="edgeLabel;html=1;align=center;verticalAlign=middle;resizable=0;points=[];" vertex="1" connectable="0" parent="4E6vH5az77i4Y6E_4xJS-10">
          <mxGeometry x="0.24" y="2" relative="1" as="geometry">
            <mxPoint x="-13" as="offset" />
          </mxGeometry>
        </mxCell>
        <mxCell id="4E6vH5az77i4Y6E_4xJS-12" value="&lt;span style=&quot;font-size: 22px;&quot;&gt;&lt;b&gt;АРХИТЕКТУРНАЯ ДИАГРАММА&lt;br&gt;&lt;/b&gt;&lt;/span&gt;" style="text;html=1;strokeColor=none;fillColor=none;align=center;verticalAlign=middle;whiteSpace=wrap;rounded=0;" vertex="1" parent="1">
          <mxGeometry x="140" y="1220" width="300" height="160" as="geometry" />
        </mxCell>
      </root>
    </mxGraphModel>
  </diagram>
</mxfile>
